<?xml version="1.0" standalone="no"?>
<!DOCTYPE svg PUBLIC "-//W3C//DTD SVG 20010904//EN"
 "http://www.w3.org/TR/2001/REC-SVG-20010904/DTD/svg10.dtd">
<svg version="1.0" xmlns="http://www.w3.org/2000/svg"
 width="512.000000pt" height="512.000000pt" viewBox="0 0 512.000000 512.000000"
 preserveAspectRatio="xMidYMid meet">
<metadata>
Created by potrace 1.11, written by Peter Selinger 2001-2013
</metadata>
<g transform="translate(0.000000,512.000000) scale(0.100000,-0.100000)"
fill="#000000" stroke="none">
<path d="M4230 4603 c-151 -38 -244 -158 -245 -315 l0 -56 -70 -59 c-38 -32
-132 -109 -207 -171 l-137 -113 -48 14 c-109 32 -238 0 -313 -77 -35 -35 -50
-38 -110 -21 -8 2 -31 7 -50 10 -19 3 -46 8 -60 10 -14 3 -36 7 -50 10 -68 13
-80 18 -80 32 0 26 -50 105 -89 141 -63 58 -115 77 -211 77 -71 0 -93 -4 -134
-25 -48 -24 -92 -61 -128 -108 -10 -12 -15 -22 -13 -22 3 0 -1 -10 -9 -22 -20
-32 -30 -84 -28 -149 2 -60 -3 -67 -93 -133 -14 -11 -34 -27 -45 -35 -10 -9
-35 -29 -56 -46 -21 -16 -74 -59 -118 -94 -45 -35 -87 -68 -94 -74 -8 -6 -26
-6 -55 2 -208 58 -404 -79 -409 -287 -1 -38 -5 -41 -175 -137 -54 -31 -107
-61 -118 -68 -10 -7 -37 -22 -58 -35 l-39 -24 -51 23 c-194 83 -429 -74 -429
-287 0 -51 22 -144 34 -144 4 0 8 -6 8 -14 0 -25 89 -107 145 -132 134 -62
299 -15 384 109 34 50 59 129 55 175 -3 37 -23 23 206 155 69 40 135 79 147
87 19 12 30 11 86 -9 214 -75 421 62 431 286 2 38 4 71 5 74 0 3 38 35 84 70
45 35 89 69 97 76 203 164 248 196 262 187 16 -10 30 -13 91 -18 83 -7 181 29
235 87 26 27 17 28 205 -9 l138 -26 25 -50 c35 -68 106 -133 173 -159 146 -55
323 15 390 154 27 56 32 77 33 149 l1 58 116 96 c147 122 143 118 229 188 l73
59 41 -14 c71 -23 159 -16 231 19 75 37 120 84 153 159 101 229 -115 488 -356
426z"/>
<path d="M4051 2889 c-27 -12 -51 -34 -71 -65 l-30 -48 0 -1168 c0 -1146 1
-1170 20 -1208 11 -21 36 -51 57 -67 l36 -28 215 -3 c182 -3 222 -1 259 13 47
18 91 67 99 109 2 14 9 37 14 50 6 16 6 27 0 31 -6 4 -10 11 -10 16 0 6 4 8 8
5 10 -6 9 51 -1 60 -10 10 -9 26 1 20 10 -6 9 51 -1 60 -10 10 -9 26 1 20 10
-6 9 51 -1 60 -10 10 -9 26 1 20 7 -4 9 113 2 139 -1 6 -1 12 0 15 7 19 7 41
-1 46 -5 3 -6 11 -2 17 11 18 12 38 2 31 -5 -3 -9 0 -9 5 0 6 5 11 10 11 7 0
7 7 -1 21 -8 17 -8 20 1 14 10 -6 10 -3 2 11 -6 11 -7 27 -1 41 5 13 4 25 -1
28 -6 4 -10 11 -10 16 0 6 4 8 8 5 10 -6 9 51 -1 60 -10 10 -9 26 1 20 10 -6
9 51 -1 60 -10 10 -9 26 1 20 10 -6 9 51 -1 60 -10 10 -9 26 1 20 7 -4 9 113
2 139 -1 6 -1 12 0 15 7 19 7 41 -1 46 -5 3 -6 11 -2 17 11 18 12 38 2 31 -5
-3 -9 0 -9 5 0 6 5 11 10 11 7 0 7 7 -1 21 -8 17 -8 20 1 14 10 -6 10 -3 2 11
-6 11 -7 27 -1 41 5 13 4 25 -1 28 -6 4 -10 11 -10 16 0 6 4 8 8 5 10 -6 9 51
-1 60 -10 10 -9 26 1 20 10 -6 9 51 -1 60 -10 10 -9 26 1 20 10 -6 9 51 -1 60
-10 10 -9 26 1 20 7 -4 9 113 2 139 -1 6 -1 12 0 15 7 19 7 41 -1 46 -5 3 -6
11 -2 17 11 18 12 38 2 31 -5 -3 -9 0 -9 5 0 6 5 11 10 11 7 0 7 7 -1 21 -8
17 -8 20 1 14 10 -6 10 -3 2 11 -6 11 -7 27 -1 41 5 13 4 25 -1 28 -6 4 -10
11 -10 16 0 6 4 8 8 5 10 -6 9 51 -1 60 -10 10 -9 26 1 20 10 -6 9 51 -1 60
-10 10 -9 26 1 20 10 -6 9 51 -1 60 -10 10 -9 26 1 20 4 -2 8 6 8 19 0 13 -4
21 -10 18 -5 -4 -7 1 -3 10 15 40 -45 136 -102 160 -16 6 -111 11 -238 12
-185 2 -217 0 -252 -16z"/>
<path d="M2325 2548 c-32 -11 -100 -77 -104 -100 -8 -43 -8 -1989 0 -2020 13
-50 50 -92 100 -112 34 -14 77 -17 247 -16 182 1 210 4 244 21 38 19 78 64 86
97 9 35 9 1988 0 2020 -11 38 -60 93 -99 109 -35 15 -433 16 -474 1z"/>
<path d="M3223 2207 c-56 -12 -100 -46 -122 -97 -19 -44 -20 -70 -20 -854 0
-696 2 -814 15 -844 20 -49 42 -71 89 -93 35 -16 67 -19 245 -19 220 0 259 8
303 58 44 49 44 55 44 906 0 765 -1 813 -18 847 -24 48 -71 87 -115 95 -52 10
-376 10 -421 1z"/>
<path d="M1447 2021 c-47 -22 -84 -63 -96 -106 -5 -18 -8 -361 -7 -762 l1
-730 30 -43 c50 -73 77 -80 315 -80 255 0 293 13 334 111 12 29 14 146 14 760
0 674 -1 729 -18 766 -21 47 -59 79 -111 93 -21 6 -125 10 -231 10 -162 -1
-199 -4 -231 -19z"/>
<path d="M595 1683 c-49 -12 -111 -85 -119 -139 -1 -7 -5 -16 -9 -20 -3 -4 -2
-15 3 -25 6 -11 6 -20 1 -23 -10 -7 -9 -25 2 -42 3 -6 3 -14 0 -18 -11 -10
-12 -37 -2 -30 5 3 9 0 9 -5 0 -6 -5 -11 -10 -11 -7 0 -7 -7 1 -21 8 -16 8
-20 -1 -14 -9 6 -9 3 -2 -12 6 -11 7 -25 2 -33 -5 -8 -5 -21 1 -31 5 -11 5
-20 0 -23 -10 -7 -9 -25 2 -42 3 -6 3 -14 0 -18 -11 -10 -12 -37 -2 -30 5 3 9
0 9 -5 0 -6 -4 -11 -10 -11 -5 0 -10 -5 -10 -11 0 -5 4 -8 8 -5 5 3 7 -5 6
-17 -1 -12 -3 -22 -4 -22 -7 0 -6 -36 1 -41 5 -3 6 -11 2 -17 -11 -18 -12 -38
-2 -31 5 3 9 0 9 -5 0 -6 -5 -11 -11 -11 -8 0 -7 -6 2 -17 12 -15 12 -16 -1
-8 -12 6 -13 5 -2 -6 14 -15 16 -33 3 -24 -9 5 -6 -33 4 -62 2 -6 -1 -14 -8
-17 -9 -3 -9 -5 1 -5 6 -1 12 -6 12 -12 0 -5 -3 -8 -8 -6 -4 3 -7 -8 -7 -23
-1 -16 3 -26 7 -24 4 3 8 0 8 -5 0 -6 -5 -11 -10 -11 -7 0 -7 -7 1 -21 8 -16
8 -20 -1 -14 -9 6 -9 3 -1 -13 6 -12 7 -23 2 -26 -10 -7 -9 -25 2 -42 3 -6 3
-14 0 -18 -11 -10 -12 -37 -2 -30 5 3 9 0 9 -5 0 -6 -5 -11 -10 -11 -7 0 -7
-7 1 -21 9 -17 8 -20 -2 -14 -8 5 -10 4 -5 -4 4 -6 9 -34 11 -62 6 -74 44
-127 110 -155 26 -11 83 -14 237 -14 177 0 208 3 245 19 39 18 91 74 86 92 -2
5 1 9 6 9 6 0 10 218 11 560 1 604 1 600 -53 659 -42 45 -69 50 -292 49 -116
0 -219 -2 -230 -5z"/>
</g>
</svg>
